<svg width="18" height="18" viewBox="0 0 18 18" fill="none" xmlns="http://www.w3.org/2000/svg">
<path fill-rule="evenodd" clip-rule="evenodd" d="M16.8337 0.749349C17.0003 0.832682 17.167 0.999349 17.2503 1.16602C17.3337 1.24935 17.3337 1.41602 17.3337 1.49935V6.49935C17.3337 6.99935 17.0003 7.33268 16.5003 7.33268C16.0003 7.33268 15.667 6.99935 15.667 6.49935V3.49935L7.91699 11.2493C7.75033 11.416 7.58366 11.4993 7.33366 11.4993C7.08366 11.4993 6.91699 11.416 6.75033 11.2493C6.41699 10.916 6.41699 10.416 6.75033 10.0827L14.5003 2.33268H11.5003C11.0003 2.33268 10.667 1.99935 10.667 1.49935C10.667 0.999349 11.0003 0.666016 11.5003 0.666016H16.5003C16.5837 0.666016 16.7503 0.666016 16.8337 0.749349ZM14.8337 14.8327V9.83268C14.8337 9.33268 14.5003 8.99935 14.0003 8.99935C13.5003 8.99935 13.167 9.33268 13.167 9.83268V14.8327C13.167 15.3327 12.8337 15.666 12.3337 15.666H3.16699C2.66699 15.666 2.33366 15.3327 2.33366 14.8327V5.66602C2.33366 5.16602 2.66699 4.83268 3.16699 4.83268H8.16699C8.66699 4.83268 9.00033 4.49935 9.00033 3.99935C9.00033 3.49935 8.66699 3.16602 8.16699 3.16602H3.16699C1.75033 3.16602 0.666992 4.24935 0.666992 5.66602V14.8327C0.666992 16.2493 1.75033 17.3327 3.16699 17.3327H12.3337C13.7503 17.3327 14.8337 16.2493 14.8337 14.8327Z" fill="#323232"/>
</svg>
